<svg width="197" height="40" viewBox="0 0 197 40" fill="none" xmlns="http://www.w3.org/2000/svg">
<circle cx="12" cy="28" r="12" fill="#F29091"/>
<circle cx="24" cy="12" r="12" fill="#F29091"/>
<circle cx="35" cy="28" r="12" fill="#F29091"/>
<path d="M55.2695 30V15.7812H60.25C61.9753 15.7812 63.2839 16.1133 64.1758 16.7773C65.0677 17.4349 65.5137 18.4017 65.5137 19.6777C65.5137 20.3743 65.3346 20.9896 64.9766 21.5234C64.6185 22.0508 64.1204 22.4382 63.4824 22.6855C64.2116 22.8678 64.7845 23.2357 65.2012 23.7891C65.6243 24.3424 65.8359 25.0195 65.8359 25.8203C65.8359 27.1875 65.3997 28.2227 64.5273 28.9258C63.6549 29.6289 62.4115 29.987 60.7969 30H55.2695ZM58.1992 23.8086V27.6465H60.709C61.3991 27.6465 61.9362 27.4837 62.3203 27.1582C62.7109 26.8262 62.9062 26.3704 62.9062 25.791C62.9062 24.4889 62.2324 23.8281 60.8848 23.8086H58.1992ZM58.1992 21.7383H60.3672C61.8451 21.7122 62.584 21.123 62.584 19.9707C62.584 19.3262 62.3952 18.8639 62.0176 18.584C61.6465 18.2975 61.0573 18.1543 60.25 18.1543H58.1992V21.7383ZM76.0703 27.0703H70.9336L69.957 30H66.8418L72.1348 15.7812H74.8496L80.1719 30H77.0566L76.0703 27.0703ZM71.7246 24.6973H75.2793L73.4922 19.375L71.7246 24.6973ZM93.0625 30H90.1328L84.4297 20.6445V30H81.5V15.7812H84.4297L90.1426 25.1562V15.7812H93.0625V30ZM100.074 24.2969L98.5508 25.9375V30H95.6211V15.7812H98.5508V22.2266L99.8398 20.459L103.463 15.7812H107.066L102.018 22.0996L107.213 30H103.727L100.074 24.2969ZM112.018 25.0488H106.52V22.7734H112.018V25.0488ZM119.723 26.4746L122.945 15.7812H126.207L121.256 30H118.199L113.268 15.7812H116.52L119.723 26.4746ZM136.109 23.8379H130.484V27.6465H137.086V30H127.555V15.7812H137.066V18.1543H130.484V21.543H136.109V23.8379ZM144.068 24.7949H141.734V30H138.805V15.7812H144.088C145.768 15.7812 147.063 16.1556 147.975 16.9043C148.886 17.653 149.342 18.7109 149.342 20.0781C149.342 21.0482 149.13 21.8587 148.707 22.5098C148.29 23.1543 147.656 23.6686 146.803 24.0527L149.879 29.8633V30H146.734L144.068 24.7949ZM141.734 22.4219H144.098C144.833 22.4219 145.403 22.2363 145.807 21.8652C146.21 21.4876 146.412 20.9701 146.412 20.3125C146.412 19.6419 146.22 19.1146 145.836 18.7305C145.458 18.3464 144.876 18.1543 144.088 18.1543H141.734V22.4219ZM154.693 30H151.764V15.7812H154.693V30ZM165.973 24.1895H160.348V30H157.418V15.7812H166.676V18.1543H160.348V21.8262H165.973V24.1895ZM171.49 30H168.561V15.7812H171.49V30ZM182.77 23.8379H177.145V27.6465H183.746V30H174.215V15.7812H183.727V18.1543H177.145V21.543H182.77V23.8379ZM190.729 24.7949H188.395V30H185.465V15.7812H190.748C192.428 15.7812 193.723 16.1556 194.635 16.9043C195.546 17.653 196.002 18.7109 196.002 20.0781C196.002 21.0482 195.79 21.8587 195.367 22.5098C194.951 23.1543 194.316 23.6686 193.463 24.0527L196.539 29.8633V30H193.395L190.729 24.7949ZM188.395 22.4219H190.758C191.493 22.4219 192.063 22.2363 192.467 21.8652C192.87 21.4876 193.072 20.9701 193.072 20.3125C193.072 19.6419 192.88 19.1146 192.496 18.7305C192.118 18.3464 191.536 18.1543 190.748 18.1543H188.395V22.4219Z" fill="#F29091"/>
</svg>
